<mxfile host="app.diagrams.net" modified="2023-04-27T03:54:32.280Z" agent="Mozilla/5.0 (Windows NT 10.0; Win64; x64) AppleWebKit/537.36 (KHTML, like Gecko) Chrome/111.0.0.0 Safari/537.36" etag="yN9RfjkRKyweXY0ej1b-" version="21.2.2" type="github">
  <diagram name="PÃ¡gina-1" id="3OW7u6ndJ45cRX3_jPvG">
    <mxGraphModel dx="880" dy="395" grid="1" gridSize="10" guides="1" tooltips="1" connect="1" arrows="1" fold="1" page="1" pageScale="1" pageWidth="827" pageHeight="1169" math="0" shadow="0">
      <root>
        <object label="" F="v" id="0">
          <mxCell />
        </object>
        <mxCell id="1" parent="0" />
        <mxCell id="_eY4Blh0ysCZoZCNc9vB-12" value="" style="edgeStyle=orthogonalEdgeStyle;rounded=0;orthogonalLoop=1;jettySize=auto;html=1;labelBackgroundColor=none;strokeColor=#E07A5F;fontColor=default;" parent="1" source="_eY4Blh0ysCZoZCNc9vB-1" target="_eY4Blh0ysCZoZCNc9vB-2" edge="1">
          <mxGeometry relative="1" as="geometry" />
        </mxCell>
        <mxCell id="_eY4Blh0ysCZoZCNc9vB-1" value="&lt;font style=&quot;vertical-align: inherit;&quot;&gt;&lt;font style=&quot;vertical-align: inherit;&quot;&gt;INICIO&lt;/font&gt;&lt;/font&gt;" style="ellipse;whiteSpace=wrap;html=1;labelBackgroundColor=none;fillColor=#F2CC8F;strokeColor=#E07A5F;fontColor=#393C56;" parent="1" vertex="1">
          <mxGeometry x="315" y="30" width="120" height="80" as="geometry" />
        </mxCell>
        <mxCell id="_eY4Blh0ysCZoZCNc9vB-63" style="edgeStyle=orthogonalEdgeStyle;rounded=0;orthogonalLoop=1;jettySize=auto;html=1;exitX=1;exitY=0.5;exitDx=0;exitDy=0;labelBackgroundColor=none;strokeColor=#E07A5F;fontColor=default;" parent="1" source="_eY4Blh0ysCZoZCNc9vB-2" edge="1">
          <mxGeometry relative="1" as="geometry">
            <mxPoint x="480" y="160.28571428571433" as="targetPoint" />
          </mxGeometry>
        </mxCell>
        <mxCell id="_eY4Blh0ysCZoZCNc9vB-2" value="&lt;font style=&quot;vertical-align: inherit;&quot;&gt;&lt;font style=&quot;vertical-align: inherit;&quot;&gt;SALDO&lt;/font&gt;&lt;/font&gt;" style="html=1;strokeWidth=2;shape=manualInput;whiteSpace=wrap;rounded=1;size=26;arcSize=11;labelBackgroundColor=none;fillColor=#F2CC8F;strokeColor=#E07A5F;fontColor=#393C56;" parent="1" vertex="1">
          <mxGeometry x="325" y="130" width="100" height="60" as="geometry" />
        </mxCell>
        <mxCell id="_eY4Blh0ysCZoZCNc9vB-56" style="edgeStyle=orthogonalEdgeStyle;rounded=0;orthogonalLoop=1;jettySize=auto;html=1;exitX=0.5;exitY=1;exitDx=0;exitDy=0;exitPerimeter=0;entryX=1;entryY=0.5;entryDx=0;entryDy=0;labelBackgroundColor=none;strokeColor=#E07A5F;fontColor=default;" parent="1" source="_eY4Blh0ysCZoZCNc9vB-3" target="_eY4Blh0ysCZoZCNc9vB-5" edge="1">
          <mxGeometry relative="1" as="geometry" />
        </mxCell>
        <mxCell id="_eY4Blh0ysCZoZCNc9vB-3" value="&quot;saldo incial&quot; + saldo" style="strokeWidth=2;html=1;shape=mxgraph.flowchart.display;whiteSpace=wrap;labelBackgroundColor=none;fillColor=#F2CC8F;strokeColor=#E07A5F;fontColor=#393C56;" parent="1" vertex="1">
          <mxGeometry x="500" y="130" width="100" height="60" as="geometry" />
        </mxCell>
        <mxCell id="_eY4Blh0ysCZoZCNc9vB-51" value="" style="edgeStyle=orthogonalEdgeStyle;rounded=0;orthogonalLoop=1;jettySize=auto;html=1;labelBackgroundColor=none;strokeColor=#E07A5F;fontColor=default;" parent="1" source="_eY4Blh0ysCZoZCNc9vB-5" target="_eY4Blh0ysCZoZCNc9vB-6" edge="1">
          <mxGeometry relative="1" as="geometry" />
        </mxCell>
        <mxCell id="_eY4Blh0ysCZoZCNc9vB-5" value="encerrar = &quot;n&quot;" style="rounded=1;whiteSpace=wrap;html=1;labelBackgroundColor=none;fillColor=#F2CC8F;strokeColor=#E07A5F;fontColor=#393C56;" parent="1" vertex="1">
          <mxGeometry x="310" y="220" width="120" height="60" as="geometry" />
        </mxCell>
        <mxCell id="_eY4Blh0ysCZoZCNc9vB-60" style="edgeStyle=orthogonalEdgeStyle;rounded=0;orthogonalLoop=1;jettySize=auto;html=1;exitX=0.5;exitY=1;exitDx=0;exitDy=0;labelBackgroundColor=none;strokeColor=#E07A5F;fontColor=default;" parent="1" source="_eY4Blh0ysCZoZCNc9vB-6" edge="1">
          <mxGeometry relative="1" as="geometry">
            <mxPoint x="370" y="480" as="targetPoint" />
          </mxGeometry>
        </mxCell>
        <mxCell id="_eY4Blh0ysCZoZCNc9vB-128" style="edgeStyle=orthogonalEdgeStyle;shape=arrow;rounded=0;orthogonalLoop=1;jettySize=auto;html=1;exitX=1;exitY=0.5;exitDx=0;exitDy=0;strokeColor=#E07A5F;fontFamily=Helvetica;fontSize=12;fontColor=#393C56;fillColor=#F2CC8F;" parent="1" source="_eY4Blh0ysCZoZCNc9vB-6" target="_eY4Blh0ysCZoZCNc9vB-127" edge="1">
          <mxGeometry relative="1" as="geometry" />
        </mxCell>
        <mxCell id="_eY4Blh0ysCZoZCNc9vB-6" value="encerrar = &quot;n&quot;" style="rhombus;whiteSpace=wrap;html=1;labelBackgroundColor=none;fillColor=#F2CC8F;strokeColor=#E07A5F;fontColor=#393C56;" parent="1" vertex="1">
          <mxGeometry x="315" y="330" width="110" height="100" as="geometry" />
        </mxCell>
        <mxCell id="_eY4Blh0ysCZoZCNc9vB-36" value="" style="edgeStyle=orthogonalEdgeStyle;rounded=0;orthogonalLoop=1;jettySize=auto;html=1;labelBackgroundColor=none;strokeColor=#E07A5F;fontColor=default;" parent="1" source="_eY4Blh0ysCZoZCNc9vB-8" edge="1">
          <mxGeometry relative="1" as="geometry">
            <mxPoint x="370" y="700" as="targetPoint" />
          </mxGeometry>
        </mxCell>
        <mxCell id="_eY4Blh0ysCZoZCNc9vB-8" value="ENTRADA" style="html=1;strokeWidth=2;shape=manualInput;whiteSpace=wrap;rounded=1;size=26;arcSize=11;labelBackgroundColor=none;fillColor=#F2CC8F;strokeColor=#E07A5F;fontColor=#393C56;" parent="1" vertex="1">
          <mxGeometry x="320" y="600" width="100" height="60" as="geometry" />
        </mxCell>
        <mxCell id="_eY4Blh0ysCZoZCNc9vB-40" value="" style="edgeStyle=orthogonalEdgeStyle;rounded=0;orthogonalLoop=1;jettySize=auto;html=1;labelBackgroundColor=none;strokeColor=#E07A5F;fontColor=default;" parent="1" source="_eY4Blh0ysCZoZCNc9vB-9" edge="1">
          <mxGeometry relative="1" as="geometry">
            <mxPoint x="490" y="750" as="targetPoint" />
          </mxGeometry>
        </mxCell>
        <object label="tipo de&lt;br&gt;entrada =1" id="_eY4Blh0ysCZoZCNc9vB-9">
          <mxCell style="rhombus;whiteSpace=wrap;html=1;labelBackgroundColor=none;fillColor=#F2CC8F;strokeColor=#E07A5F;fontColor=#393C56;" parent="1" vertex="1">
            <mxGeometry x="330" y="710" width="80" height="80" as="geometry" />
          </mxCell>
        </object>
        <mxCell id="_eY4Blh0ysCZoZCNc9vB-39" value="" style="edgeStyle=orthogonalEdgeStyle;rounded=0;orthogonalLoop=1;jettySize=auto;html=1;labelBackgroundColor=none;strokeColor=#E07A5F;fontColor=default;exitX=1.026;exitY=0.597;exitDx=0;exitDy=0;exitPerimeter=0;entryX=0;entryY=0.573;entryDx=0;entryDy=0;entryPerimeter=0;" parent="1" source="_eY4Blh0ysCZoZCNc9vB-62" target="_eY4Blh0ysCZoZCNc9vB-11" edge="1">
          <mxGeometry relative="1" as="geometry">
            <mxPoint x="610" y="830" as="sourcePoint" />
            <Array as="points">
              <mxPoint x="630" y="755" />
              <mxPoint x="650" y="754" />
            </Array>
          </mxGeometry>
        </mxCell>
        <mxCell id="_eY4Blh0ysCZoZCNc9vB-11" value="&quot;entrada&quot; + quantidade" style="strokeWidth=2;html=1;shape=mxgraph.flowchart.display;whiteSpace=wrap;labelBackgroundColor=none;fillColor=#F2CC8F;strokeColor=#E07A5F;fontColor=#393C56;" parent="1" vertex="1">
          <mxGeometry x="660" y="720" width="100" height="60" as="geometry" />
        </mxCell>
        <mxCell id="_eY4Blh0ysCZoZCNc9vB-31" value="" style="strokeWidth=2;html=1;shape=mxgraph.flowchart.annotation_1;align=left;pointerEvents=1;labelBackgroundColor=none;fillColor=#F2CC8F;strokeColor=#E07A5F;fontColor=#393C56;" parent="1" vertex="1">
          <mxGeometry x="265" y="380" width="50" height="740" as="geometry" />
        </mxCell>
        <mxCell id="_eY4Blh0ysCZoZCNc9vB-52" value="" style="edgeStyle=orthogonalEdgeStyle;rounded=0;orthogonalLoop=1;jettySize=auto;html=1;labelBackgroundColor=none;strokeColor=#E07A5F;fontColor=default;" parent="1" source="_eY4Blh0ysCZoZCNc9vB-48" edge="1">
          <mxGeometry relative="1" as="geometry">
            <mxPoint x="370" y="603" as="targetPoint" />
          </mxGeometry>
        </mxCell>
        <mxCell id="_eY4Blh0ysCZoZCNc9vB-48" value="TIPO DE ENTRADA" style="html=1;strokeWidth=2;shape=manualInput;whiteSpace=wrap;rounded=1;size=26;arcSize=11;labelBackgroundColor=none;fillColor=#F2CC8F;strokeColor=#E07A5F;fontColor=#393C56;" parent="1" vertex="1">
          <mxGeometry x="320" y="480" width="100" height="60" as="geometry" />
        </mxCell>
        <mxCell id="_eY4Blh0ysCZoZCNc9vB-62" value="saldo= saldo + quantidade&lt;br&gt;" style="rounded=1;whiteSpace=wrap;html=1;labelBackgroundColor=none;fillColor=#F2CC8F;strokeColor=#E07A5F;fontColor=#393C56;" parent="1" vertex="1">
          <mxGeometry x="500" y="725" width="110" height="50" as="geometry" />
        </mxCell>
        <mxCell id="_eY4Blh0ysCZoZCNc9vB-68" value="&lt;font style=&quot;font-size: 18px;&quot;&gt;F&lt;/font&gt;" style="text;html=1;align=center;verticalAlign=middle;resizable=0;points=[];autosize=1;strokeColor=#FF9933;fillColor=none;fontColor=#393C56;" parent="1" vertex="1">
          <mxGeometry x="535" y="320" width="30" height="40" as="geometry" />
        </mxCell>
        <mxCell id="_eY4Blh0ysCZoZCNc9vB-72" value="&lt;font style=&quot;font-size: 18px;&quot;&gt;F&lt;/font&gt;" style="text;html=1;align=center;verticalAlign=middle;resizable=0;points=[];autosize=1;strokeColor=#FF9933;fillColor=none;fontColor=#393C56;" parent="1" vertex="1">
          <mxGeometry x="310" y="790" width="30" height="40" as="geometry" />
        </mxCell>
        <mxCell id="_eY4Blh0ysCZoZCNc9vB-73" value="&lt;font style=&quot;font-size: 18px;&quot;&gt;v&lt;/font&gt;" style="text;html=1;align=center;verticalAlign=middle;resizable=0;points=[];autosize=1;strokeColor=#FF9933;fillColor=none;fontColor=#393C56;" parent="1" vertex="1">
          <mxGeometry x="305" y="440" width="30" height="40" as="geometry" />
        </mxCell>
        <mxCell id="_eY4Blh0ysCZoZCNc9vB-74" value="&lt;font style=&quot;font-size: 18px;&quot;&gt;v&lt;/font&gt;" style="text;html=1;align=center;verticalAlign=middle;resizable=0;points=[];autosize=1;strokeColor=#FF9933;fillColor=none;fontColor=#393C56;" parent="1" vertex="1">
          <mxGeometry x="435" y="685" width="30" height="40" as="geometry" />
        </mxCell>
        <mxCell id="_eY4Blh0ysCZoZCNc9vB-96" value="" style="edgeStyle=orthogonalEdgeStyle;rounded=0;orthogonalLoop=1;jettySize=auto;html=1;labelBackgroundColor=none;strokeColor=#E07A5F;fontColor=default;" parent="1" edge="1">
          <mxGeometry relative="1" as="geometry">
            <mxPoint x="369.41" y="790" as="sourcePoint" />
            <mxPoint x="369.82000000000005" y="820" as="targetPoint" />
          </mxGeometry>
        </mxCell>
        <object label="tipo de&lt;br&gt;entrada =2" id="_eY4Blh0ysCZoZCNc9vB-99">
          <mxCell style="rhombus;whiteSpace=wrap;html=1;labelBackgroundColor=none;fillColor=#F2CC8F;strokeColor=#E07A5F;fontColor=#393C56;" parent="1" vertex="1">
            <mxGeometry x="330" y="830" width="80" height="80" as="geometry" />
          </mxCell>
        </object>
        <mxCell id="_eY4Blh0ysCZoZCNc9vB-102" value="saldo = saldo - quantidade" style="strokeWidth=2;html=1;shape=mxgraph.flowchart.display;whiteSpace=wrap;labelBackgroundColor=none;fillColor=#F2CC8F;strokeColor=#E07A5F;fontColor=#393C56;" parent="1" vertex="1">
          <mxGeometry x="660" y="840" width="100" height="60" as="geometry" />
        </mxCell>
        <object label="saldo &amp;gt; =&lt;br&gt;quantidade" id="_eY4Blh0ysCZoZCNc9vB-103">
          <mxCell style="rhombus;whiteSpace=wrap;html=1;labelBackgroundColor=none;fillColor=#F2CC8F;strokeColor=#E07A5F;fontColor=#393C56;" parent="1" vertex="1">
            <mxGeometry x="500" y="830" width="80" height="80" as="geometry" />
          </mxCell>
        </object>
        <mxCell id="_eY4Blh0ysCZoZCNc9vB-104" value="saldo" style="strokeWidth=2;html=1;shape=mxgraph.flowchart.display;whiteSpace=wrap;labelBackgroundColor=none;fillColor=#F2CC8F;strokeColor=#E07A5F;fontColor=#393C56;" parent="1" vertex="1">
          <mxGeometry x="320" y="1000" width="100" height="60" as="geometry" />
        </mxCell>
        <mxCell id="_eY4Blh0ysCZoZCNc9vB-105" value="encerrar s/n ?" style="html=1;strokeWidth=2;shape=manualInput;whiteSpace=wrap;rounded=1;size=26;arcSize=11;labelBackgroundColor=none;fillColor=#F2CC8F;strokeColor=#E07A5F;fontColor=#393C56;" parent="1" vertex="1">
          <mxGeometry x="315" y="1080" width="100" height="60" as="geometry" />
        </mxCell>
        <mxCell id="_eY4Blh0ysCZoZCNc9vB-106" value="&quot;sistema encerrado&quot;" style="strokeWidth=2;html=1;shape=mxgraph.flowchart.display;whiteSpace=wrap;labelBackgroundColor=none;fillColor=#F2CC8F;strokeColor=#E07A5F;fontColor=#393C56;" parent="1" vertex="1">
          <mxGeometry x="315" y="1169" width="100" height="60" as="geometry" />
        </mxCell>
        <mxCell id="_eY4Blh0ysCZoZCNc9vB-110" value="" style="edgeStyle=orthogonalEdgeStyle;rounded=0;orthogonalLoop=1;jettySize=auto;html=1;labelBackgroundColor=none;strokeColor=#E07A5F;fontColor=default;exitX=0.5;exitY=1;exitDx=0;exitDy=0;" parent="1" source="_eY4Blh0ysCZoZCNc9vB-99" edge="1">
          <mxGeometry relative="1" as="geometry">
            <mxPoint x="369.41" y="930" as="sourcePoint" />
            <mxPoint x="369.41" y="950" as="targetPoint" />
          </mxGeometry>
        </mxCell>
        <mxCell id="_eY4Blh0ysCZoZCNc9vB-113" value="" style="edgeStyle=orthogonalEdgeStyle;rounded=0;orthogonalLoop=1;jettySize=auto;html=1;labelBackgroundColor=none;strokeColor=#E07A5F;fontColor=default;" parent="1" edge="1">
          <mxGeometry relative="1" as="geometry">
            <mxPoint x="364.41" y="1140" as="sourcePoint" />
            <mxPoint x="364.41" y="1160" as="targetPoint" />
          </mxGeometry>
        </mxCell>
        <mxCell id="_eY4Blh0ysCZoZCNc9vB-118" value="" style="edgeStyle=none;orthogonalLoop=1;jettySize=auto;html=1;rounded=0;strokeColor=#E07A5F;fontFamily=Helvetica;fontSize=12;fontColor=#393C56;fillColor=#F2CC8F;exitX=0.995;exitY=0.556;exitDx=0;exitDy=0;exitPerimeter=0;" parent="1" source="_eY4Blh0ysCZoZCNc9vB-127" edge="1">
          <mxGeometry width="100" relative="1" as="geometry">
            <mxPoint x="780" y="650" as="sourcePoint" />
            <mxPoint x="435" y="1202" as="targetPoint" />
            <Array as="points">
              <mxPoint x="785" y="1202" />
            </Array>
          </mxGeometry>
        </mxCell>
        <mxCell id="_eY4Blh0ysCZoZCNc9vB-127" value="" style="line;strokeWidth=1;rotatable=0;dashed=0;labelPosition=right;align=left;verticalAlign=middle;spacingTop=0;spacingLeft=6;points=[];portConstraint=eastwest;rounded=0;fontFamily=Helvetica;fontSize=12;fontColor=#393C56;fillColor=none;gradientColor=none;html=1;" parent="1" vertex="1">
          <mxGeometry x="430" y="365" width="350" height="30" as="geometry" />
        </mxCell>
        <mxCell id="_eY4Blh0ysCZoZCNc9vB-130" value="" style="edgeStyle=orthogonalEdgeStyle;rounded=0;orthogonalLoop=1;jettySize=auto;html=1;labelBackgroundColor=none;strokeColor=#E07A5F;fontColor=default;exitX=1;exitY=0.5;exitDx=0;exitDy=0;" parent="1" source="_eY4Blh0ysCZoZCNc9vB-99" edge="1">
          <mxGeometry relative="1" as="geometry">
            <mxPoint x="430" y="870" as="sourcePoint" />
            <mxPoint x="470" y="870" as="targetPoint" />
          </mxGeometry>
        </mxCell>
        <mxCell id="_eY4Blh0ysCZoZCNc9vB-131" value="" style="edgeStyle=orthogonalEdgeStyle;rounded=0;orthogonalLoop=1;jettySize=auto;html=1;labelBackgroundColor=none;strokeColor=#E07A5F;fontColor=default;" parent="1" edge="1">
          <mxGeometry relative="1" as="geometry">
            <mxPoint x="580" y="869.41" as="sourcePoint" />
            <mxPoint x="620" y="869.41" as="targetPoint" />
          </mxGeometry>
        </mxCell>
        <mxCell id="_eY4Blh0ysCZoZCNc9vB-132" value="&quot;saldo insuficiente&quot;" style="strokeWidth=2;html=1;shape=mxgraph.flowchart.display;whiteSpace=wrap;labelBackgroundColor=none;fillColor=#F2CC8F;strokeColor=#E07A5F;fontColor=#393C56;" parent="1" vertex="1">
          <mxGeometry x="500" y="960" width="100" height="60" as="geometry" />
        </mxCell>
        <mxCell id="_eY4Blh0ysCZoZCNc9vB-133" value="&quot;saida &quot; + quantidade" style="strokeWidth=2;html=1;shape=mxgraph.flowchart.display;whiteSpace=wrap;labelBackgroundColor=none;fillColor=#F2CC8F;strokeColor=#E07A5F;fontColor=#393C56;" parent="1" vertex="1">
          <mxGeometry x="660" y="960" width="100" height="60" as="geometry" />
        </mxCell>
        <mxCell id="_eY4Blh0ysCZoZCNc9vB-134" value="&lt;font style=&quot;font-size: 18px;&quot;&gt;v&lt;/font&gt;" style="text;html=1;align=center;verticalAlign=middle;resizable=0;points=[];autosize=1;strokeColor=#FF9933;fillColor=none;fontColor=#393C56;" parent="1" vertex="1">
          <mxGeometry x="440" y="810" width="30" height="40" as="geometry" />
        </mxCell>
        <mxCell id="_eY4Blh0ysCZoZCNc9vB-135" value="&lt;font style=&quot;font-size: 18px;&quot;&gt;v&lt;/font&gt;" style="text;html=1;align=center;verticalAlign=middle;resizable=0;points=[];autosize=1;strokeColor=#FF9933;fillColor=none;fontColor=#393C56;" parent="1" vertex="1">
          <mxGeometry x="600" y="810" width="30" height="40" as="geometry" />
        </mxCell>
        <mxCell id="_eY4Blh0ysCZoZCNc9vB-136" value="&lt;font style=&quot;font-size: 18px;&quot;&gt;F&lt;/font&gt;" style="text;html=1;align=center;verticalAlign=middle;resizable=0;points=[];autosize=1;strokeColor=#FF9933;fillColor=none;fontColor=#393C56;" parent="1" vertex="1">
          <mxGeometry x="310" y="900" width="30" height="40" as="geometry" />
        </mxCell>
        <mxCell id="_eY4Blh0ysCZoZCNc9vB-137" value="&lt;font style=&quot;font-size: 18px;&quot;&gt;F&lt;/font&gt;" style="text;html=1;align=center;verticalAlign=middle;resizable=0;points=[];autosize=1;strokeColor=#FF9933;fillColor=none;fontColor=#393C56;" parent="1" vertex="1">
          <mxGeometry x="490" y="920" width="30" height="40" as="geometry" />
        </mxCell>
        <mxCell id="_eY4Blh0ysCZoZCNc9vB-139" value="" style="edgeStyle=orthogonalEdgeStyle;rounded=0;orthogonalLoop=1;jettySize=auto;html=1;labelBackgroundColor=none;strokeColor=#E07A5F;fontColor=default;entryX=0;entryY=0.573;entryDx=0;entryDy=0;entryPerimeter=0;exitX=0.5;exitY=1;exitDx=0;exitDy=0;exitPerimeter=0;" parent="1" source="_eY4Blh0ysCZoZCNc9vB-132" edge="1">
          <mxGeometry relative="1" as="geometry">
            <mxPoint x="527" y="1029.41" as="sourcePoint" />
            <mxPoint x="460" y="1029.41" as="targetPoint" />
            <Array as="points">
              <mxPoint x="550" y="1029" />
              <mxPoint x="517" y="1029" />
              <mxPoint x="460" y="1030" />
            </Array>
          </mxGeometry>
        </mxCell>
        <mxCell id="_eY4Blh0ysCZoZCNc9vB-140" value="" style="edgeStyle=orthogonalEdgeStyle;rounded=0;orthogonalLoop=1;jettySize=auto;html=1;labelBackgroundColor=none;strokeColor=#E07A5F;fontColor=default;exitX=0.5;exitY=1;exitDx=0;exitDy=0;exitPerimeter=0;" parent="1" source="_eY4Blh0ysCZoZCNc9vB-133" edge="1">
          <mxGeometry relative="1" as="geometry">
            <mxPoint x="690" y="1040" as="sourcePoint" />
            <mxPoint x="460" y="1049" as="targetPoint" />
            <Array as="points">
              <mxPoint x="710" y="1049" />
            </Array>
          </mxGeometry>
        </mxCell>
        <mxCell id="_eY4Blh0ysCZoZCNc9vB-141" value="" style="edgeStyle=orthogonalEdgeStyle;rounded=0;orthogonalLoop=1;jettySize=auto;html=1;labelBackgroundColor=none;strokeColor=#E07A5F;fontColor=default;exitX=0.5;exitY=1;exitDx=0;exitDy=0;" parent="1" edge="1">
          <mxGeometry relative="1" as="geometry">
            <mxPoint x="710" y="780" as="sourcePoint" />
            <mxPoint x="709.4100000000001" y="820" as="targetPoint" />
          </mxGeometry>
        </mxCell>
        <mxCell id="_eY4Blh0ysCZoZCNc9vB-142" value="" style="edgeStyle=orthogonalEdgeStyle;rounded=0;orthogonalLoop=1;jettySize=auto;html=1;labelBackgroundColor=none;strokeColor=#E07A5F;fontColor=default;exitX=0.5;exitY=1;exitDx=0;exitDy=0;" parent="1" edge="1">
          <mxGeometry relative="1" as="geometry">
            <mxPoint x="710" y="900" as="sourcePoint" />
            <mxPoint x="709.4100000000001" y="940" as="targetPoint" />
          </mxGeometry>
        </mxCell>
        <mxCell id="_eY4Blh0ysCZoZCNc9vB-147" value="" style="edgeStyle=orthogonalEdgeStyle;rounded=0;orthogonalLoop=1;jettySize=auto;html=1;labelBackgroundColor=none;strokeColor=#E07A5F;fontColor=default;" parent="1" edge="1">
          <mxGeometry relative="1" as="geometry">
            <mxPoint x="539.41" y="910" as="sourcePoint" />
            <mxPoint x="539.82" y="940" as="targetPoint" />
          </mxGeometry>
        </mxCell>
        <mxCell id="_eY4Blh0ysCZoZCNc9vB-148" value="" style="edgeStyle=orthogonalEdgeStyle;rounded=0;orthogonalLoop=1;jettySize=auto;html=1;labelBackgroundColor=none;strokeColor=#E07A5F;fontColor=default;" parent="1" edge="1">
          <mxGeometry relative="1" as="geometry">
            <mxPoint x="364.41" y="1060" as="sourcePoint" />
            <mxPoint x="364.41" y="1080" as="targetPoint" />
          </mxGeometry>
        </mxCell>
        <mxCell id="_eY4Blh0ysCZoZCNc9vB-149" value="" style="edgeStyle=orthogonalEdgeStyle;rounded=0;orthogonalLoop=1;jettySize=auto;html=1;labelBackgroundColor=none;strokeColor=#E07A5F;fontColor=default;" parent="1" edge="1">
          <mxGeometry relative="1" as="geometry">
            <mxPoint x="364.41" y="1229" as="sourcePoint" />
            <mxPoint x="364.41" y="1249" as="targetPoint" />
          </mxGeometry>
        </mxCell>
        <mxCell id="_eY4Blh0ysCZoZCNc9vB-151" value="&lt;font style=&quot;vertical-align: inherit;&quot;&gt;&lt;font style=&quot;vertical-align: inherit;&quot;&gt;fim&lt;/font&gt;&lt;/font&gt;" style="ellipse;whiteSpace=wrap;html=1;labelBackgroundColor=none;fillColor=#F2CC8F;strokeColor=#E07A5F;fontColor=#393C56;" parent="1" vertex="1">
          <mxGeometry x="305" y="1260" width="120" height="30" as="geometry" />
        </mxCell>
      </root>
    </mxGraphModel>
  </diagram>
</mxfile>
